<?xml version="1.0" standalone="no"?><svg xmlns="http://www.w3.org/2000/svg" viewBox="0 0 1440 320"><path fill="#0099ff" fill-opacity="1" d="M0,192L8.6,202.7C17.1,213,34,235,51,213.3C68.6,192,86,128,103,101.3C120,75,137,85,154,74.7C171.4,64,189,32,206,69.3C222.9,107,240,213,257,224C274.3,235,291,149,309,138.7C325.7,128,343,192,360,202.7C377.1,213,394,171,411,154.7C428.6,139,446,149,463,144C480,139,497,117,514,106.7C531.4,96,549,96,566,85.3C582.9,75,600,53,617,48C634.3,43,651,53,669,74.7C685.7,96,703,128,720,170.7C737.1,213,754,267,771,245.3C788.6,224,806,128,823,90.7C840,53,857,75,874,96C891.4,117,909,139,926,128C942.9,117,960,75,977,80C994.3,85,1011,139,1029,149.3C1045.7,160,1063,128,1080,101.3C1097.1,75,1114,53,1131,42.7C1148.6,32,1166,32,1183,53.3C1200,75,1217,117,1234,122.7C1251.4,128,1269,96,1286,96C1302.9,96,1320,128,1337,165.3C1354.3,203,1371,245,1389,256C1405.7,267,1423,245,1431,234.7L1440,224L1440,0L1431.4,0C1422.9,0,1406,0,1389,0C1371.4,0,1354,0,1337,0C1320,0,1303,0,1286,0C1268.6,0,1251,0,1234,0C1217.1,0,1200,0,1183,0C1165.7,0,1149,0,1131,0C1114.3,0,1097,0,1080,0C1062.9,0,1046,0,1029,0C1011.4,0,994,0,977,0C960,0,943,0,926,0C908.6,0,891,0,874,0C857.1,0,840,0,823,0C805.7,0,789,0,771,0C754.3,0,737,0,720,0C702.9,0,686,0,669,0C651.4,0,634,0,617,0C600,0,583,0,566,0C548.6,0,531,0,514,0C497.1,0,480,0,463,0C445.7,0,429,0,411,0C394.3,0,377,0,360,0C342.9,0,326,0,309,0C291.4,0,274,0,257,0C240,0,223,0,206,0C188.6,0,171,0,154,0C137.1,0,120,0,103,0C85.7,0,69,0,51,0C34.3,0,17,0,9,0L0,0Z"></path></svg>