<?xml version="1.0" standalone="no"?><svg xmlns="http://www.w3.org/2000/svg" viewBox="0 0 1440 320"><path fill="#a2d9ff" fill-opacity="1" d="M0,192L8.6,202.7C17.1,213,34,235,51,213.3C68.6,192,86,128,103,101.3C120,75,137,85,154,74.7C171.4,64,189,32,206,69.3C222.9,107,240,213,257,224C274.3,235,291,149,309,138.7C325.7,128,343,192,360,202.7C377.1,213,394,171,411,154.7C428.6,139,446,149,463,144C480,139,497,117,514,106.7C531.4,96,549,96,566,85.3C582.9,75,600,53,617,48C634.3,43,651,53,669,74.7C685.7,96,703,128,720,170.7C737.1,213,754,267,771,245.3C788.6,224,806,128,823,90.7C840,53,857,75,874,96C891.4,117,909,139,926,128C942.9,117,960,75,977,80C994.3,85,1011,139,1029,149.3C1045.7,160,1063,128,1080,101.3C1097.1,75,1114,53,1131,42.7C1148.6,32,1166,32,1183,53.3C1200,75,1217,117,1234,122.7C1251.4,128,1269,96,1286,96C1302.9,96,1320,128,1337,165.3C1354.3,203,1371,245,1389,256C1405.7,267,1423,245,1431,234.7L1440,224L1440,320L1431.4,320C1422.9,320,1406,320,1389,320C1371.4,320,1354,320,1337,320C1320,320,1303,320,1286,320C1268.6,320,1251,320,1234,320C1217.1,320,1200,320,1183,320C1165.7,320,1149,320,1131,320C1114.3,320,1097,320,1080,320C1062.9,320,1046,320,1029,320C1011.4,320,994,320,977,320C960,320,943,320,926,320C908.6,320,891,320,874,320C857.1,320,840,320,823,320C805.7,320,789,320,771,320C754.3,320,737,320,720,320C702.9,320,686,320,669,320C651.4,320,634,320,617,320C600,320,583,320,566,320C548.6,320,531,320,514,320C497.1,320,480,320,463,320C445.7,320,429,320,411,320C394.3,320,377,320,360,320C342.9,320,326,320,309,320C291.4,320,274,320,257,320C240,320,223,320,206,320C188.6,320,171,320,154,320C137.1,320,120,320,103,320C85.7,320,69,320,51,320C34.3,320,17,320,9,320L0,320Z"></path></svg>